<svg id="Flat_color" data-name="Flat color" xmlns="http://www.w3.org/2000/svg" viewBox="0 0 145.93 120.1"><defs><style>.cls-1{fill:#c40c0c;}.cls-2{fill:#ff3600;}.cls-3{fill:#0060b2;}.cls-4{fill:#005c2f;}.cls-5{fill:#a8621a;}.cls-6{fill:#00aee1;}.cls-7{fill:#fea2c5;}.cls-8{fill:#f9faf5;}.cls-9{fill:#86309d;}.cls-10{fill:#ffda00;}.cls-11{fill:none;}</style></defs><path class="cls-1" d="M200,57c.79-.08.47.79.37,1.26-.15.69-.26,1.38-.38,2.07l-.51,3q-.56,3.21-1.09,6.4a2.31,2.31,0,0,1-.39,1.09,2.15,2.15,0,0,1-1,.57,89.07,89.07,0,0,1-25.92,5.73c-5.84.4-4.32-.17-8.28.18-4.13.36-6.39,1-7.69-.41-.8-.85-.16-1.33-1.22-3.88-1-2.38-2.31-3.74-1.78-4.48a1,1,0,0,1,.76-.36c5.45-.71,29.39-2.47,37.23-6.5,2.86-1.47,5.57-3.28,8.63-4.32A5.71,5.71,0,0,1,200,57Z" transform="translate(-61.5 -39.61)"/><path class="cls-2" d="M198.17,73.56c1.44,1.58-.57,4.14-.93,10.19a41.6,41.6,0,0,0-.42,6.1c0,.39,0,.74-.5.87a44,44,0,0,1-6.7,1.46c-2.29.22-4.58.5-6.87.65a60.39,60.39,0,0,1-7.6.25,39.94,39.94,0,0,0-4.75-.35,19.24,19.24,0,0,1-5.91-.61c-.58-.13-1-.25-2-.45a7.15,7.15,0,0,1-2-.46c-.82-.49-.91-1.5-1.23-3.07a58.31,58.31,0,0,0-2.06-7c-.38-1.17-.74-2.09-1-2.63a106.69,106.69,0,0,0,13.49,0c2.21-.14,6.7-.6,12.34-1.48,3.14-.49,6.2-1.42,9.3-2.14,1.88-.45,3.86-2.82,5.84-2A2.67,2.67,0,0,1,198.17,73.56Z" transform="translate(-61.5 -39.61)"/><path class="cls-3" d="M196.72,123.07a10.74,10.74,0,0,1,.13,2.83,4.41,4.41,0,0,1-2.47,3.19c-.66.39-1.39.59-2,1-1.38.77-2.92,1.16-4.36,1.81s-3.26,1.24-4.9,1.84c-2.16.79-4.39,1.39-6.59,2.07-1.65.52-3.27,1.13-4.93,1.55-4.89,1.21-9.81,2.5-14.77,3.31-1.5.25-3,.42-4.51.56-3.56.33-7.13.44-10.69.76a57.17,57.17,0,0,1-11.29.17c-1.23-.1-9-.81-9.13-2.55,0-.37,1-1.16,2.94-2.73.92-.73,1.25-.95,2.69-2.09,1.06-.84,1.59-1.26,2.09-1.69,1.24-1.07,1.31-1.29,2.49-2.32,2.08-1.81,2.73-1.9,3-1.92a3.37,3.37,0,0,1,2.24.93c2.41,2,8.14,2.29,12.68,2.52a74.88,74.88,0,0,0,20.19-2.16,193.89,193.89,0,0,0,20.08-5.58,60.31,60.31,0,0,0,6.37-2.4C196.73,121.77,196.7,122.5,196.72,123.07Z" transform="translate(-61.5 -39.61)"/><path class="cls-4" d="M196.52,113.84a4.87,4.87,0,0,1,.09,1.35c0,.31,0,.62,0,.89,0,1.86.11,3.19-1.45,4.42a17.75,17.75,0,0,1-5.27,2.41q-2,.66-4,1.26c-6.58,2-13.32,3.17-20,4.56a73.7,73.7,0,0,1-20.78,1.63,26.56,26.56,0,0,1-5.31-.9,15.09,15.09,0,0,1-2.48-1c-.42-.22-1-.46-1-.83s.21-.46.29-.53c4.39-3.92,9.18-7.39,13.58-11.3a7.67,7.67,0,0,1,3.28-1.72,8.41,8.41,0,0,1,1.53,0,3.94,3.94,0,0,1,.49,0c9,1.19,18,2.21,27,1.67a48,48,0,0,0,5.75-.66c1-.18,1.91-.4,2.84-.67s1.77-.66,2.68-.9S196.13,112.43,196.52,113.84Z" transform="translate(-61.5 -39.61)"/><path class="cls-5" d="M156.82,99.75c0-1.37-.33-1.89-1-4.12-1.07-3.68-.5-3.67-1.59-8.29A53.48,53.48,0,0,0,152,79.68c-.34-.83-.77-1.81-1.27-3.36-.2-.61-.44-1.41-.89-2.72-.18-.53-.33-1-.44-1.27s-.29-.85-.51-1.45a15.8,15.8,0,0,0-1.13-2.72,5.17,5.17,0,0,0-1.71-2c-1.65-1-4.16-.55-4.62.51a4,4,0,0,0,0,1.58,11.74,11.74,0,0,0,.19,1.46,58.37,58.37,0,0,1,3.31,7.34,64.36,64.36,0,0,1,1.93,6.33c1.14,4.64.62,4.79,1.91,10.89.44,2.08.42,4.27,1.14,6.27a5.09,5.09,0,0,1,.31,2.53,5.29,5.29,0,0,1-.57,1.64c-2.4,4.32-8.1,7.47-8.1,7.47-3.92,2.17.54.19-11.64,7.91-1.31.83-2.61,1.64-13.49,8.3-3.26,2-6.38,4.25-9.75,6.07s-6,4.69-9.24,6.59A2.62,2.62,0,0,0,96,142.66c-.29,1.51,1.68,3.56,3.8,3.92a4.28,4.28,0,0,0,2.21-.19c3.64-1.38,6.48-4.15,9.41-6.6,3.24-2.72,6.89-4.92,10.19-7.56s6.38-5.47,10-7.59a135.63,135.63,0,0,0,13.64-9.49c2-1.51,3.84-3.11,5.78-4.71a18.35,18.35,0,0,0,4.1-4.76c.07-.14.13-.28.13-.28A17.26,17.26,0,0,0,156.82,99.75Z" transform="translate(-61.5 -39.61)"/><path class="cls-6" d="M148.69,101c-.37-1.69-.7-3.39-1-5.09-.86-4.57-1.64-9.32-2.92-13.85-.68-2.41-1.69-4.64-2.53-7s-1.45-4.62-2.34-6.88A4.67,4.67,0,0,0,138,65.77a5.7,5.7,0,0,0-2-.58c-1-.18-1.22-.06-1.3,0s.07.68.23,1a7.57,7.57,0,0,1,.7,3c.8,2,1.4,3.52,1.81,4.6a39.35,39.35,0,0,0,1.7,4.16c.1.21.22.45.38.82a14.78,14.78,0,0,1,.93,3c.2,1,1.39,6.5,2.74,10.68.57,1.77,2,5.86,2.08,8.94a6.38,6.38,0,0,1-.11,1.42,7.82,7.82,0,0,1-2.3,4,29.82,29.82,0,0,1-6,4.44c-2.14,1.36-3.76,2.36-4.28,2.67-1.94,1.19-2.33,1.45-7.84,4.94-8,5.07-12,7.61-12.43,7.84-6,3.41-11.56,7.58-17.4,11.28-.39.25-1.35.88-1.35,1.67,0,.61.71,1.17,1.37,1.33.48.11,1,0,2-.53a19,19,0,0,0,3-1.95c.87-.66,1.81-1.23,2.71-1.85,1.75-1.21,7.5-5.2,13.09-8.84.68-.44,2.45-1.59,4.78-3.05,7.29-4.57,9.56-5.63,13.59-8.46.61-.43,2.07-1.33,4.07-2.83,1.12-.83,2.31-1.59,3.46-2.32a29.07,29.07,0,0,0,6.23-5.68C149,104.09,149.09,102.8,148.69,101Z" transform="translate(-61.5 -39.61)"/><path class="cls-7" d="M142.79,95.68c-.11-.32-.21-.64-.3-1-.63-2.32-.85-4.78-1.45-7.1A48.6,48.6,0,0,0,139,81a70.63,70.63,0,0,1-2.93-7.29,40.18,40.18,0,0,0-2.69-6.3c-.87-1.74-1.37-4.24-3.49-4.7-1.44-.32-2.42-1.41-3.8-1.71-.21,0-.37-.45-.61-.14s0,.47.14.73c.77,1.42,1.51,2.86,2.14,4.36.88,2.12,1.86,4.2,2.78,6.31.53,1.21,1.49,2.18,2,3.37,1.7,4,3.19,8,4.64,12,.71,2,1.41,4,2.12,6,.21.58.49,1.2.76,1.85a7.9,7.9,0,0,1,.87,3.64c-.28,2.54-3.32,4.91-5,6.51a42.25,42.25,0,0,1-6.07,4.15c-4.27,2.72-9,4.69-13.31,7.35q-5.52,3.36-10.75,7.16c-3.21,2.33-6.22,5-9.61,7.08a35.37,35.37,0,0,0-3.33,2.51,20.65,20.65,0,0,1-1.71,1.24c-.52.32-1.28.53-1.56,1.06a.76.76,0,0,0-.11.32.71.71,0,0,0,.28.48,3.39,3.39,0,0,0,1.92,1.17c.9.14,1.37-.38,2.11-.75,1.2-1,2.43-1.87,3.72-2.77,1.73-1.19,4.9-3.22,6.69-4.3,6.09-3.66,10.34-7.43,16.62-10.77,2.87-1.53,6.1-3.71,8.87-5.44,3.9-2.43,7.95-4.31,11.25-7.53,1.47-1.44,2.82-2.53,3.36-4.56a3.8,3.8,0,0,0,.13-.81C144.51,99.31,143.39,97.43,142.79,95.68Z" transform="translate(-61.5 -39.61)"/><path class="cls-8" d="M137.89,95.45c-.83-1.84-1.56-3.74-2.25-5.64-1.36-3.83-2.53-7.72-3.89-11.54A74.22,74.22,0,0,0,126.81,68c-1.42-2.64-3.15-5.1-4.47-7.79a12.14,12.14,0,0,0-2.89-4.14,21.34,21.34,0,0,0-3.73-2.29c-1-.51-1.83-1.2-2.82-1.69-2.26-1.1-4.17-2.8-6.5-3.79-.2-.08-.38-.41-.62-.17s0,.51.13.74c.32.57.66,1.13,1,1.71,1.61,2.82,3.18,5.66,4.83,8.45,2,3.33,4,6.62,6,9.93.67,1.12,1.28,2.28,2,3.38,1.48,2.36,3.11,4.64,4.48,7.07.31.54.52,1.1.88,1.63,2,2.9,3.86,5.9,5.81,8.83a54.94,54.94,0,0,1,4.85,8.29,2.54,2.54,0,0,1-.78,2.67c-3.16,2.07-6.31,4.14-9.49,6.18-1.51,1-2.94,2.1-4.47,3-11.55,7-22.59,15-33.57,22.94l-2.34,1.7c-.19.14-.41.34-.35.57a.52.52,0,0,0,.31.32,2.56,2.56,0,0,0,1.39.22,6.25,6.25,0,0,0,2.11-.7c4-2,7.49-4.92,11-7.69,5-3.91,10.1-7.7,15.44-11.13,2.7-1.73,5.45-3.36,8.28-4.86s5.69-2.55,8.3-4.2l.16-.11a26.31,26.31,0,0,0,5.31-4.45,7.91,7.91,0,0,0,1.8-2.74C139.38,98.24,138.56,96.92,137.89,95.45Z" transform="translate(-61.5 -39.61)"/><path class="cls-9" d="M196.42,129.78a.34.34,0,0,0-.48-.18c-3.35,1.66-6.89,2.92-10.36,4.32-4.24,1.71-8.58,3-12.9,4.47,0,0-21.85,6.68-45.55,5-2.09-.14-3.67-.25-5.13-1.35-1.11-.83-1.56-1.78-2.52-1.73-.66,0-.93.49-2.51,1.86,0,0-.84.73-2.31,1.86-.46.35-.82.6-1.29.9h0l-2.29,1.47c-3.37,2.19-3.93,2.38-4,2.93a.9.9,0,0,0,.29.68c.55.62,2.08,1.49,5.9,2.9A56.45,56.45,0,0,0,124,156.14a83,83,0,0,0,11.47.94,97.78,97.78,0,0,0,17-1.2,48.91,48.91,0,0,0,10.63-2.76q2.61-1,5.11-2.21c2.77-1.34,5.7-2.31,8.43-3.76s5.63-3.05,8.34-4.75c1.32-.84,2.63-1.71,3.9-2.63s2.71-2,4-3.06c1-.79,2.45-1.35,2.94-2.61a21.94,21.94,0,0,0,.72-2.9A2.76,2.76,0,0,0,196.42,129.78Z" transform="translate(-61.5 -39.61)"/><path class="cls-9" d="M105.14,86.34a16.72,16.72,0,0,0-14-9.34,12.47,12.47,0,0,0-2.79.23c-5.25,1-8.84,5.16-10.93,9.85a13.22,13.22,0,0,0-.59,10.11,13,13,0,0,0,7.31,8,17.61,17.61,0,0,0,10.59,1,12.5,12.5,0,0,0,7.57-5,20.1,20.1,0,0,0,3-6.31,14,14,0,0,0,.31-4.51C105.47,89.07,105.67,87.48,105.14,86.34ZM101.24,96c-1.75,5-4.6,7-9.74,7.25-.09,0-3.21,0-3.73-.08-2.39-.32-3.48-.57-5.17-2.47a15.23,15.23,0,0,1-2.71-4,14.29,14.29,0,0,1-.77-4.31A11.94,11.94,0,0,1,80.6,85c2.08-3.76,7.26-5.69,11.3-5.85,3.79-.15,9.6,4.39,10.42,8.4C102.8,89.87,102.11,93.53,101.24,96Z" transform="translate(-61.5 -39.61)"/><path d="M207.26,138.09a1,1,0,0,0-.77-.73c-.49,0-.54.41-.59.8-.08.61-.32,1.16-.37,1.81a5.81,5.81,0,0,1-1.33,3.21A7.87,7.87,0,0,1,203,144.4a6.09,6.09,0,0,1-1.78.85,16.54,16.54,0,0,0-1.72.58c-.22.11-.81.35-.84.64a.7.7,0,0,0,.61.82,1.68,1.68,0,0,0,.5,0c.29,0,.58-.11.88-.14a4.56,4.56,0,0,0,2.12-1.1c.56-.41,1.14-.78,1.67-1.22a7.68,7.68,0,0,0,2.55-3.31,4.68,4.68,0,0,0,.17-.53A5.41,5.41,0,0,0,207.26,138.09Z" transform="translate(-61.5 -39.61)"/><path d="M206.85,148.05c-.45-.31-.75.11-1,.39a10.11,10.11,0,0,1-1.33,1.12c-2.16,1.55-5.42,1.77-7.41-.2a1,1,0,0,0-1.34.15c-.44.45,0,.73.29.92,1.22.89,2.61,2,4.19,2.12.29,0,.58,0,.88,0a8,8,0,0,0,3.58-.9,4.2,4.2,0,0,0,2.13-2.72C206.87,148.66,207.19,148.29,206.85,148.05Z" transform="translate(-61.5 -39.61)"/><path d="M200.63,136.8c.59-.37,1.06-1,.59-1.71-2.14-3-1.6-10.12-1.84-13.7-.36-5.22-.44-10.45-.34-15.68a260.67,260.67,0,0,1,4.23-42.26c.44-2.39.26-6.78,1.67-8.76a14.12,14.12,0,0,0,1.8-4.38,1.15,1.15,0,0,0-.41-1.39,1.1,1.1,0,0,0-1.47.25c-1.5,1.46-3,2.91-4.62,4.24A47.38,47.38,0,0,1,191,59.08a26.65,26.65,0,0,1-3.71,1.75c-2.25.74-4.54,1.36-6.83,2-9.65,2.62-18.82,4.23-28.85,2.66-2.44-.39-4.9-.69-7.31-1.26-7.44-1.76-14.25-5.35-20.84-9.13-4.29-2.46-8.53-5.09-13-7.24-4.13-2-8.42-3.55-12.61-5.44a22.44,22.44,0,0,0-4.66-1.11l-.51-.09A5.45,5.45,0,0,1,91,41a10.92,10.92,0,0,1-3.23-.45,1.15,1.15,0,0,0-.17-.06A9.59,9.59,0,0,1,86.09,40a19.26,19.26,0,0,0-8.48.15,13.75,13.75,0,0,1-3.07.26,7.54,7.54,0,0,0-2.85.82c-.33.13-.73.58-1.11.49a7.39,7.39,0,0,1-1.49.67,3.25,3.25,0,0,1-.62.13,1.83,1.83,0,0,1-.24.31c-.47.44-1.47.5-1.7,1.16a1.44,1.44,0,0,0,0,.55c.12,2,.62,4.25.37,6.2-.29,2.37,0,4.81-.8,7.12a.65.65,0,0,0,0,.31,12.12,12.12,0,0,1-.35,3.45c-1.37,9.81-1.08,20-1.6,29.93-.65,12.24-1.67,24.41-2,36.66-.11,3.7.31,7.79-.43,11.42-.32,1.51-.1,1.85,1.38,1.71a1.42,1.42,0,0,1,.92.13l.41-.16a5.59,5.59,0,0,1,1.5-1.19,1.18,1.18,0,0,1,.35-.31,16.7,16.7,0,0,1,5.56-2.15,32.64,32.64,0,0,1,4.09-.51,2,2,0,0,1,.84,0,5.25,5.25,0,0,1,2.37,0l1.31-.18a4.07,4.07,0,0,1,1,.11,1.67,1.67,0,0,1,.51,0,17.65,17.65,0,0,1,2.73.58,13.15,13.15,0,0,1,6.3,3.14c1.86,1.77,3.73,3.54,5.66,5.22a49.09,49.09,0,0,0,12.67,8.42l1.14.48c.59.24,1.17.48,1.77.69a33.85,33.85,0,0,0,4.07,1.07,174.61,174.61,0,0,0,19.86,2.74A68.72,68.72,0,0,0,155,158.25a57.11,57.11,0,0,0,9.53-2.67,91.08,91.08,0,0,0,11.85-5.19c2.77-1.52,5.39-3.31,8.12-4.9,4.59-2.68,9.18-5.56,14-7.8A17.38,17.38,0,0,0,200.63,136.8ZM152.18,68.58a1,1,0,0,1,.76-.36c5.45-.71,29.39-2.47,37.23-6.5,2.86-1.47,5.57-3.28,8.63-4.32A5.71,5.71,0,0,1,200,57c.79-.08.47.79.37,1.26-.15.69-.26,1.38-.38,2.07l-.51,3q-.56,3.21-1.09,6.4a2.31,2.31,0,0,1-.39,1.09,2.15,2.15,0,0,1-1,.57,89.07,89.07,0,0,1-25.92,5.73c-5.84.4-4.32-.17-8.28.18-4.13.36-6.39,1-7.69-.41-.8-.85-.16-1.33-1.22-3.88C153,70.68,151.65,69.32,152.18,68.58ZM81.9,134.83a2.47,2.47,0,0,1-1.79.14c-2.93-.41-5.84-.78-8.77.42-2.11.85-4.33,1.46-6.39,2.47-1,.51-1.62.17-1.51-1a93.49,93.49,0,0,0,.16-12.07c-.13-4.19.07-8.36.35-12.53a59.53,59.53,0,0,1,.56-6.7c.64-3.47.27-7.06.48-10.56s.47-6.78.63-10.18c.35-7.12.55-14.25,1.27-21.35.48-4.7,1.12-9.39,1.7-14.08.48-3.86,4.72-5.27,8-6,.88-.19,1.77-.35,2.66-.48a41.22,41.22,0,0,1,22.72,3.22c2.46,1.12,4.27,5.62,5.61,7.89,2.81,4.72,5.32,9.61,8,14.39s5.56,9.21,8.47,13.73c2.31,3.58,4.16,7.44,6.9,10.73,1.34,1.62,3.19,3.48,2.23,5.76s-3.12,3.62-4.94,4.91c-6.14,4.32-12.87,7.87-19.25,11.83-4.75,2.94-9.92,5.46-14.19,9.11A136.21,136.21,0,0,1,81.9,134.83Zm4.5.95a2.56,2.56,0,0,1-1.39-.22.52.52,0,0,1-.31-.32c-.06-.23.16-.43.35-.57l2.34-1.7c11-8,22-15.89,33.57-22.94,1.53-.94,3-2.06,4.47-3,3.18-2,6.33-4.11,9.49-6.18a2.54,2.54,0,0,0,.78-2.67,54.94,54.94,0,0,0-4.85-8.29C128.9,86.92,127,83.92,125,81c-.36-.53-.57-1.09-.88-1.63-1.37-2.43-3-4.71-4.48-7.07-.7-1.1-1.31-2.26-2-3.38-2-3.31-4-6.6-6-9.93-1.65-2.79-3.22-5.63-4.83-8.45-.33-.58-.67-1.14-1-1.71-.14-.23-.38-.49-.13-.74s.42.09.62.17c2.33,1,4.24,2.69,6.5,3.79,1,.49,1.85,1.18,2.82,1.69a21.34,21.34,0,0,1,3.73,2.29,12.14,12.14,0,0,1,2.89,4.14c1.32,2.69,3,5.15,4.47,7.79a74.22,74.22,0,0,1,4.94,10.29c1.36,3.82,2.53,7.71,3.89,11.54.69,1.9,1.42,3.8,2.25,5.64.67,1.47,1.49,2.79.93,4.45a7.91,7.91,0,0,1-1.8,2.74,26.31,26.31,0,0,1-5.31,4.45l-.16.11c-2.61,1.65-5.57,2.75-8.3,4.2s-5.58,3.13-8.28,4.86c-5.34,3.43-10.44,7.22-15.44,11.13-3.53,2.77-7,5.68-11,7.69A6.25,6.25,0,0,1,86.4,135.78Zm5.24,2.35A3.39,3.39,0,0,1,89.72,137a.71.71,0,0,1-.28-.48.76.76,0,0,1,.11-.32c.28-.53,1-.74,1.56-1.06a20.65,20.65,0,0,0,1.71-1.24,35.37,35.37,0,0,1,3.33-2.51c3.39-2.08,6.4-4.75,9.61-7.08q5.24-3.8,10.75-7.16c4.33-2.66,9-4.63,13.31-7.35a42.25,42.25,0,0,0,6.07-4.15c1.72-1.6,4.76-4,5-6.51a7.9,7.9,0,0,0-.87-3.64c-.27-.65-.55-1.27-.76-1.85-.71-2-1.41-4-2.12-6-1.45-4-2.94-8.08-4.64-12-.51-1.19-1.47-2.16-2-3.37-.92-2.11-1.9-4.19-2.78-6.31-.63-1.5-1.37-2.94-2.14-4.36-.14-.26-.34-.47-.14-.73s.4.09.61.14c1.38.3,2.36,1.39,3.8,1.71,2.12.46,2.62,3,3.49,4.7a40.18,40.18,0,0,1,2.69,6.3A70.63,70.63,0,0,0,139,81a48.6,48.6,0,0,1,2,6.61c.6,2.32.82,4.78,1.45,7.1.09.33.19.65.3,1,.6,1.75,1.72,3.63,1.6,5.52a3.8,3.8,0,0,1-.13.81c-.54,2-1.89,3.12-3.36,4.56-3.3,3.22-7.35,5.1-11.25,7.53-2.77,1.73-6,3.91-8.87,5.44-6.28,3.34-10.53,7.11-16.62,10.77-1.79,1.08-5,3.11-6.69,4.3-1.29.9-2.52,1.78-3.72,2.77C93,137.75,92.54,138.27,91.64,138.13ZM94.88,141c-.66-.16-1.38-.72-1.37-1.33,0-.79,1-1.42,1.35-1.67,5.84-3.7,11.39-7.87,17.4-11.28.41-.23,4.42-2.77,12.43-7.84,5.51-3.49,5.9-3.75,7.84-4.94.52-.31,2.14-1.31,4.28-2.67,3.88-2.48,4.95-3.31,6-4.44a11.37,11.37,0,0,0,2.55-3.59c.85-2.17.17-3.47-1.75-10.81-1.21-4.67-1.61-6.71-2.83-10.61-.61-2-1.1-3.31-1.24-3.7s-.78-2.18-1.82-4.66c-1.53-3.68-1.85-4.4-1.85-4.4-.4-.93-.54-2-1-2.87-.16-.32-.4-.75-.23-1s.28-.23,1.3,0a5.7,5.7,0,0,1,2,.58,4.67,4.67,0,0,1,1.91,2.39c.89,2.26,1.53,4.61,2.34,6.88s1.85,4.57,2.53,7c1.28,4.53,2.06,9.28,2.92,13.85.32,1.7.65,3.4,1,5.09.4,1.84.35,3.13-.9,4.57a29.07,29.07,0,0,1-6.23,5.68c-1.15.73-2.34,1.49-3.46,2.32-2,1.5-3.46,2.4-4.07,2.83-4,2.83-6.3,3.89-13.59,8.46-2.33,1.46-4.1,2.61-4.78,3.05-5.59,3.64-11.34,7.63-13.09,8.84-.9.62-1.84,1.19-2.71,1.85a19,19,0,0,1-3,1.95C95.83,141.06,95.36,141.15,94.88,141Zm5.77,5.48c-2,.07-3.8-2.31-3.84-3.93,0-.43.53-.81.8-1.07,2.77-2.59,6.17-4.33,9.09-6.68s6.41-3.91,9.54-5.82c4.59-2.81,9.29-5.48,13.69-8.58,3.78-2.67,7.73-5.15,11.59-7.71,3.22-2.14,6.36-4.58,8.41-7.92a5,5,0,0,0,.43-4.34,33.15,33.15,0,0,1-1.28-6,74.2,74.2,0,0,0-2.23-11c-.63-2.11-1.14-4.29-1.93-6.33-1-2.67-2.17-5.28-3-8a1.45,1.45,0,0,1-.11-.29c-.07-.48-.46-1.38-.09-1.8a3.55,3.55,0,0,1,4.07-.38c.37.23.74.58,1.49,2a23.41,23.41,0,0,1,1.69,3.8c.18.57.33,1,.46,1.42h0c.72,2.07.92,2,2,5.51.45,1.45.84,2.75,1.26,4.35a.29.29,0,0,0,0,.09c.33,1.27.67,2.74,1.07,4.63.87,4,1.06,6.18,1.8,8.51a17.6,17.6,0,0,1,.59,3,11.7,11.7,0,0,1,0,2.37c0,.06,0,.12,0,.16a10.89,10.89,0,0,1-.3,1.51,10.12,10.12,0,0,1-.67,1.81c-1.16,2.31-3.39,4.18-5.62,5.86-1.1.83-2.19,1.62-3.16,2.38-2.95,2.34-6.08,4.47-9.16,6.62-12.27,8.55-13.33,8.56-17,12a90.52,90.52,0,0,1-9.4,7.11c-2.79,2-5.34,5.1-8.55,6.38A5,5,0,0,1,100.65,146.52Zm60.53-44.69c-.26-2.06-.39-3.09-.63-4.23-.48-2.32-1-3.44-.31-4.19a1.57,1.57,0,0,1,.31-.28,1.42,1.42,0,0,1,.37-.19,3.13,3.13,0,0,1,2.31.2,11.67,11.67,0,0,0,3.67.56c4,.08,7.91.48,11.89.4a69.72,69.72,0,0,0,9.27-.61,57.73,57.73,0,0,0,7.5-1.22c1.07-.31,1.34,0,1.28,1.12,0,3.51-.22,7-.29,10.53,0,1.31-.16,2.62-.17,3.93a9.81,9.81,0,0,1-.1,2.76,3.14,3.14,0,0,1-.3.91c-.22.29-.68.29-1,.38-.65.17-1.31.28-2,.45-1,.26-2,.69-3,1a42.39,42.39,0,0,1-4.88.79c-7.91,1.06-18.22,0-18.3,0-5-.43-8-.65-9.78-.89s-2.37-.49-2.52-1a1,1,0,0,1,.05-.67,3.55,3.55,0,0,1,.72-1c.91-.76,2-1.71,3.31-2.81,1.92-1.67,2.49-2.22,2.74-3.18C161.4,104.26,161.45,104,161.18,101.83Zm33.95,18.67a17.75,17.75,0,0,1-5.27,2.41q-2,.66-4,1.26c-6.58,2-13.32,3.17-20,4.56a73.7,73.7,0,0,1-20.78,1.63,26.56,26.56,0,0,1-5.31-.9,15.09,15.09,0,0,1-2.48-1c-.42-.22-1-.46-1-.83s.21-.46.29-.53c4.39-3.92,9.18-7.39,13.58-11.3a7.67,7.67,0,0,1,3.28-1.72,8.41,8.41,0,0,1,1.53,0,3.94,3.94,0,0,1,.49,0c9,1.19,18,2.21,27,1.67a48,48,0,0,0,5.75-.66c1-.18,1.91-.4,2.84-.67s1.77-.66,2.68-.9,2.44-1.11,2.83.3a4.87,4.87,0,0,1,.09,1.35c0,.31,0,.62,0,.89C196.62,117.94,196.69,119.27,195.13,120.5Zm1.46,10.7a21.94,21.94,0,0,1-.72,2.9c-.49,1.26-1.94,1.82-2.94,2.61-1.32,1-2.66,2.08-4,3.06s-2.58,1.79-3.9,2.63c-2.71,1.7-5.51,3.25-8.34,4.75s-5.66,2.42-8.43,3.76q-2.5,1.22-5.11,2.21a48.91,48.91,0,0,1-10.63,2.76,97.78,97.78,0,0,1-17,1.2,83,83,0,0,1-11.47-.94A56.45,56.45,0,0,1,113.3,153c-3.82-1.41-5.35-2.28-5.9-2.9a.9.9,0,0,1-.29-.68c0-.55.59-.74,4-2.93l2.29-1.47h0c.47-.3.83-.55,1.29-.9,1.47-1.13,2.31-1.86,2.31-1.86,1.58-1.37,1.85-1.84,2.51-1.86,1,0,1.41.9,2.52,1.73,1.46,1.1,3,1.21,5.13,1.35,23.7,1.64,45.55-5,45.55-5,4.32-1.45,8.66-2.76,12.9-4.47,3.47-1.4,7-2.66,10.36-4.32a.34.34,0,0,1,.48.18A2.76,2.76,0,0,1,196.59,131.2Zm.26-5.3a4.41,4.41,0,0,1-2.47,3.19c-.66.39-1.39.59-2,1-1.38.77-2.92,1.16-4.36,1.81s-3.26,1.24-4.9,1.84c-2.16.79-4.39,1.39-6.59,2.07-1.65.52-3.27,1.13-4.93,1.55-4.89,1.21-9.81,2.5-14.77,3.31-1.5.25-3,.42-4.51.56-3.56.33-7.13.44-10.69.76a57.17,57.17,0,0,1-11.29.17c-1.23-.1-9-.81-9.13-2.55,0-.37,1-1.16,2.94-2.73.92-.73,1.25-.95,2.69-2.09,1.06-.84,1.59-1.26,2.09-1.69,1.24-1.07,1.31-1.29,2.49-2.32,2.08-1.81,2.73-1.9,3-1.92a3.37,3.37,0,0,1,2.24.93c2.41,2,8.14,2.29,12.68,2.52a74.88,74.88,0,0,0,20.19-2.16,193.89,193.89,0,0,0,20.08-5.58,60.31,60.31,0,0,0,6.37-2.4c.78-.37.75.36.77.93A10.74,10.74,0,0,1,196.85,125.9Zm0-36.05c0,.39,0,.74-.5.87a44,44,0,0,1-6.7,1.46c-2.29.22-4.58.5-6.87.65a60.39,60.39,0,0,1-7.6.25,39.94,39.94,0,0,0-4.75-.35,19.24,19.24,0,0,1-5.91-.61c-.58-.13-1-.25-2-.45a7.15,7.15,0,0,1-2-.46c-.82-.49-.91-1.5-1.23-3.07a58.31,58.31,0,0,0-2.06-7c-.38-1.17-.74-2.09-1-2.63a106.69,106.69,0,0,0,13.49,0c2.21-.14,6.7-.6,12.34-1.48,3.14-.49,6.2-1.42,9.3-2.14,1.88-.45,3.86-2.82,5.84-2a2.67,2.67,0,0,1,1,.67c1.44,1.58-.57,4.14-.93,10.19A41.6,41.6,0,0,0,196.82,89.85Z" transform="translate(-61.5 -39.61)"/><path d="M102.27,102.79c5.41-6.14,7.53-16.83.63-22.81-3.17-2.73-8.11-4-12.22-4.2-6-.23-12.13,4.94-14.3,10.25-1.49,3.65-2.17,7.32-1.13,11.18a14.77,14.77,0,0,0,4.82,8c2.55,2,6.21,2.7,9.3,2.88a16.78,16.78,0,0,0,9-1.73A15.59,15.59,0,0,0,102.27,102.79Zm-18.16,2.35a13,13,0,0,1-7.31-8,13.22,13.22,0,0,1,.59-10.11c2.09-4.69,5.68-8.8,10.93-9.85A12.47,12.47,0,0,1,91.11,77a16.72,16.72,0,0,1,14,9.34c.53,1.14.33,2.73.39,4a14,14,0,0,1-.31,4.51,20.1,20.1,0,0,1-3,6.31,12.5,12.5,0,0,1-7.57,5A17.61,17.61,0,0,1,84.11,105.14Z" transform="translate(-61.5 -39.61)"/><path d="M102.32,87.51c-.82-4-6.63-8.55-10.42-8.4-4,.16-9.22,2.09-11.3,5.85a11.94,11.94,0,0,0-1.48,7.43,14.29,14.29,0,0,0,.77,4.31,15.23,15.23,0,0,0,2.71,4c1.69,1.9,2.78,2.15,5.17,2.47.52.07,3.64.09,3.73.08,5.14-.29,8-2.29,9.74-7.25C102.11,93.53,102.8,89.87,102.32,87.51Zm-1.59,4.9A25.37,25.37,0,0,1,98.91,97a10.33,10.33,0,0,1-5.64,4.42,1.93,1.93,0,0,1-.42,0,16.34,16.34,0,0,1-8.37-2,5.56,5.56,0,0,1-2.45-3,13.51,13.51,0,0,1-1.37-7.42,10.07,10.07,0,0,1,1.66-3.71c1.85-3,4.78-3.87,7.92-4.47a1.08,1.08,0,0,1,.62,0,11.47,11.47,0,0,1,4,.31C98.91,83,102.37,88,100.73,92.41Z" transform="translate(-61.5 -39.61)"/><path class="cls-10" d="M195.56,92.27a57.73,57.73,0,0,1-7.5,1.22,69.72,69.72,0,0,1-9.27.61c-4,.08-7.93-.32-11.89-.4a11.67,11.67,0,0,1-3.67-.56,3.13,3.13,0,0,0-2.31-.2,1.42,1.42,0,0,0-.37.19,1.57,1.57,0,0,0-.31.28c-.64.75-.17,1.87.31,4.19.24,1.14.37,2.17.63,4.23s.22,2.43.15,2.69c-.25,1-.82,1.51-2.74,3.18-1.27,1.1-2.4,2-3.31,2.81a3.55,3.55,0,0,0-.72,1,1,1,0,0,0-.05.67c.15.48.73.73,2.52,1s4.79.46,9.78.89c.08,0,10.39,1.06,18.3,0a42.39,42.39,0,0,0,4.88-.79c1-.26,2-.69,3-1,.65-.17,1.31-.28,2-.45.32-.09.78-.09,1-.38a3.14,3.14,0,0,0,.3-.91,9.81,9.81,0,0,0,.1-2.76c0-1.31.14-2.62.17-3.93.07-3.51.29-7,.29-10.53C196.9,92.28,196.63,92,195.56,92.27Z" transform="translate(-61.5 -39.61)"/><path class="cls-10" d="M124,82.19c-2.91-4.52-5.81-9-8.47-13.73s-5.22-9.67-8-14.39c-1.34-2.27-3.15-6.77-5.61-7.89A41.22,41.22,0,0,0,79.21,43c-.89.13-1.78.29-2.66.48-3.24.7-7.48,2.11-8,6-.58,4.69-1.22,9.38-1.7,14.08-.72,7.1-.92,14.23-1.27,21.35-.16,3.4-.43,6.79-.63,10.18s.16,7.09-.48,10.56a59.53,59.53,0,0,0-.56,6.7c-.28,4.17-.48,8.34-.35,12.53a93.49,93.49,0,0,1-.16,12.07c-.11,1.15.48,1.49,1.51,1,2.06-1,4.28-1.62,6.39-2.47,2.93-1.2,5.84-.83,8.77-.42a2.47,2.47,0,0,0,1.79-.14,136.21,136.21,0,0,0,12.89-10.3c4.27-3.65,9.44-6.17,14.19-9.11,6.38-4,13.11-7.51,19.25-11.83,1.82-1.29,4-2.77,4.94-4.91s-.89-4.14-2.23-5.76C128.2,89.63,126.35,85.77,124,82.19Zm-21.77,20.6a15.59,15.59,0,0,1-3.92,3.59,16.78,16.78,0,0,1-9,1.73c-3.09-.18-6.75-.91-9.3-2.88a14.77,14.77,0,0,1-4.82-8c-1-3.86-.36-7.53,1.13-11.18,2.17-5.31,8.35-10.48,14.3-10.25,4.11.15,9,1.47,12.22,4.2C109.8,86,107.68,96.65,102.27,102.79Z" transform="translate(-61.5 -39.61)"/><path class="cls-10" d="M94.84,81.25c-.45-.11-1-.21-1.49-.29a14.2,14.2,0,0,0-2.43-.14c-.24,0-.63,0-1.1.09a10.41,10.41,0,0,0-5.94,2.51,9.68,9.68,0,0,0-1.56,2,9,9,0,0,0-1.66,3.71A13.51,13.51,0,0,0,82,96.53a5.56,5.56,0,0,0,2.45,3,16.34,16.34,0,0,0,8.37,2,1.93,1.93,0,0,0,.42,0A10.33,10.33,0,0,0,98.91,97a25.37,25.37,0,0,0,1.82-4.56C102.37,88,98.91,83,94.84,81.25Z" transform="translate(-61.5 -39.61)"/><path class="cls-11" d="M-13.88,29.09" transform="translate(-61.5 -39.61)"/></svg>