<svg id="Layer_5" data-name="Layer 5" xmlns="http://www.w3.org/2000/svg" viewBox="0 0 86.83 73.32"><defs><style>.cls-1{fill:#067b8e;}.cls-2{fill:#ed6f48;}</style></defs><path class="cls-1" d="M386.18,407.82c1.61.72,1.67,1.84,1.08,3.35l-2.52,1.31-2.09-2.24C383.58,408.44,385,408.25,386.18,407.82Z" transform="translate(-300.83 -377.52)"/><path class="cls-1" d="M387.66,416.55a3.7,3.7,0,0,1-2.84,3.28c-1.09-1-1.34-1.59-.8-2.22a5.4,5.4,0,0,1,1.81-1.51C386.27,415.92,387,416.35,387.66,416.55Z" transform="translate(-300.83 -377.52)"/><path class="cls-1" d="M383.56,397.49c2.25.92,2.75,2.36,2.47,4.39-1.21,1.38-2.62,2.13-4.71.89-.12-1.21-.23-2.41-.37-3.74Zm-.38,4.23,1.36-.53c-.31-1-.36-2-2.22-1.61C382.65,400.4,382.9,401,383.18,401.72Z" transform="translate(-300.83 -377.52)"/><path class="cls-2" d="M385,433.12a1.83,1.83,0,0,1-1.18,2.67c-4.44,1.6-8.92,3.06-13.37,4.6-4.29,1.48-9.29,2.8-12.42,6.4a4.16,4.16,0,0,1-1.76,1.44,1.42,1.42,0,0,1-.48,0c-.59,0-.81-.54-1.32-1.07.42-1.92.82-3.76,1.21-5.62-.9-.39-1.36.24-1.82.61-1.52,1.21-3,2.48-4.47,3.76-8,6.92-18.58,6-26.07.37a9.35,9.35,0,0,1-1.53-1.41c-.65-.77-1.27-2.16-2.09-2.71-1.29-.86-3.14-.7-4.57-1.26a11,11,0,0,1-6.89-8.27,40.12,40.12,0,0,1-.06-16.62c1-5.13,3.36-8.92,6.72-12.87,4.23-5,9.51-9.77,15.49-12.53,9.63-4.44,20.77-6.27,31.14-3.19a21.6,21.6,0,0,1,5.21,2.52,35.52,35.52,0,0,1,8.86,7.38c3.06,3.8,3.8,9.05,4.59,13.73a28.43,28.43,0,0,1-.55,10.63c-.58,2.74-1.44,5.41-2,8.18s1.79,2.35,3.75,2.51C382.67,432.53,384,432.12,385,433.12Zm-27.46-22.95.64-.62c-1.43-1.49-2.77-3.09-4.3-4.46-8.93-8-22.16-5.48-31.14,1-4.15,3-6.9,7.19-9.15,11.63s-2.39,9.09-1.67,13.84c.6,4,3,6.17,6.59,6.21a5.64,5.64,0,0,0,.82,0,5.22,5.22,0,0,0,3.88-2c.57-1.92-.26-3-2-3.51-.28-.08-.69.27-1,.42l.57,2.08-2.18,1.32c-4.17-3.86-5.6-8.44-4.13-13.66a26,26,0,0,1,5.7-10.07,34.1,34.1,0,0,1,9.16-7.1,20.65,20.65,0,0,1,9.15-2.41,28.86,28.86,0,0,1,9.41,1.39c2.87.85,5.85,1.83,7.86,4.41A11.37,11.37,0,0,0,357.56,410.17Zm-6.29,23.12c-1.32-1.47-1.31-1.59-2.78-1.78a19.33,19.33,0,0,1-8-3.06c-2.25-6-.19-12.1-.37-18-.47-.91-.89-1.62-2.14-1.53-.9,2.93.3,5.91.15,8.89a94.27,94.27,0,0,0,.42,9.47l-4,2.36c2.13.35,3.46.29,4.51.79,2.66,1.28,5.57,1.52,8.36,2.25A35.31,35.31,0,0,0,351.27,433.29Z" transform="translate(-300.83 -377.52)"/><path class="cls-1" d="M384.42,423.57c.57.08,1.05.75,1.67,1.24-1.53,4-1.68,4.08-5.38,4.2a8.36,8.36,0,0,1-.34-2.26,3.39,3.39,0,0,1,1.69-2.73A4.23,4.23,0,0,1,384.42,423.57Z" transform="translate(-300.83 -377.52)"/><path class="cls-1" d="M379.74,389.71a2.85,2.85,0,0,1-.56,3.35,3.42,3.42,0,0,1-3.81.07c-.17-.67-.39-1.58-.66-2.67l2.87-2.14Z" transform="translate(-300.83 -377.52)"/><path class="cls-1" d="M371.47,383.84a3.74,3.74,0,0,1,0,4.37,9.46,9.46,0,0,1-1.92.39,18.55,18.55,0,0,1-2.44-.26c-.59-.83-1.15-1.59-1.6-2.22.37-1.75,1.62-2.43,2.52-3.21C369.47,382.5,370.7,382.65,371.47,383.84Zm-2.57,3.63,1.77-.9c-.33-1.48-.71-2.55-2.46-2.2C368.43,385.34,368.63,386.24,368.9,387.47Z" transform="translate(-300.83 -377.52)"/><path class="cls-1" d="M362.54,381.64l-1.09,1.85c-.9.05-1.45.12-2,.09a9,9,0,0,1-1.41-.33c-.44-1-.93-2.06-1.44-3.21l1.69-1.34C361.33,379.53,361.33,379.53,362.54,381.64Z" transform="translate(-300.83 -377.52)"/><path class="cls-1" d="M351.37,378.45a2.45,2.45,0,0,1,0,3.08c-.83,1-1.17,1.05-4.33.81l-1-1.46c.18-.52.2-1,.46-1.24.93-.74,1.95-1.38,3-2.12Z" transform="translate(-300.83 -377.52)"/><path class="cls-1" d="M338.66,379.26a1.54,1.54,0,0,1-.1,2.54,11.52,11.52,0,0,1-2.33,1.13,11.48,11.48,0,0,1-1-1.27,3.42,3.42,0,0,1-.12-.92A2.92,2.92,0,0,1,338.66,379.26Z" transform="translate(-300.83 -377.52)"/><path class="cls-1" d="M332,382.61c.3,1.54-.38,2.61-2,3.36-2-1-2-1-3-3.8l2.21-1.73C330.8,380.59,331.76,381.24,332,382.61Z" transform="translate(-300.83 -377.52)"/><path class="cls-1" d="M324.21,390.41a3.15,3.15,0,0,1-2,3.64c-1.05.48-1.65.41-3.7-.52a5.34,5.34,0,0,1,2.49-5C322.66,388.28,323.83,388.78,324.21,390.41Zm-1.61,1.64c0-.43-.08-.95-.17-1.89l-2.25,1.91C321.12,393.08,321.8,392.63,322.6,392.05Z" transform="translate(-300.83 -377.52)"/><path class="cls-1" d="M314.32,396.46c.64.79,1.13,1.37,1.52,1.85a4.59,4.59,0,0,1-2.35,3.87,6.94,6.94,0,0,1-2.1.33,6.39,6.39,0,0,1-.39-2.07C311.32,398.73,311.66,398.41,314.32,396.46Z" transform="translate(-300.83 -377.52)"/><path class="cls-1" d="M312.07,441.62c.53,1.8.53,1.8-1.21,2.63-.26-.8-.43-1.3-.67-2Z" transform="translate(-300.83 -377.52)"/><path class="cls-1" d="M306.69,405.25c1.83,1.18,2.05,1.78,1.19,2.85a2.31,2.31,0,0,1-2.57,1C304.64,407.59,305,406.36,306.69,405.25Z" transform="translate(-300.83 -377.52)"/><path class="cls-1" d="M302.68,423.4c1.62,1,2.59,2.33,2.26,4.37a1.51,1.51,0,0,1-.38.73,3,3,0,0,1-.94.78,3.82,3.82,0,0,1-1.17.12C300.24,426.8,300.26,426.05,302.68,423.4Z" transform="translate(-300.83 -377.52)"/><path class="cls-1" d="M304.68,414.11c.42,3.09.39,3.14-1.92,3.43,0-.51-.29-1.14-.08-1.48A12.87,12.87,0,0,1,304.68,414.11Z" transform="translate(-300.83 -377.52)"/><path class="cls-1" d="M305.75,437.62,304,438.75c-1.09-1.14-1-2.07-.2-3C305,435.64,305.51,436.34,305.75,437.62Z" transform="translate(-300.83 -377.52)"/></svg>