<svg id="Layer_3" data-name="Layer 3" xmlns="http://www.w3.org/2000/svg" viewBox="0 0 84.87 85.75"><defs><style>.cls-1{fill:#067b8e;}.cls-2{fill:#ed6f48;}</style></defs><path class="cls-1" d="M159.21,391c.94.39.95.67-.08,2.74l-1.57-.66A1.71,1.71,0,0,1,159.21,391Z" transform="translate(-75.12 -356.86)"/><path class="cls-1" d="M158.37,381.38,160,383l-1.67,1.76c-1.23-.14-1.24-1-1.46-1.91Z" transform="translate(-75.12 -356.86)"/><path class="cls-1" d="M158.8,408.1c-.48,1-.48,1-1.88,1.2-.09-.61-.13-.88-.16-1.14C157.75,407.61,157.75,407.61,158.8,408.1Z" transform="translate(-75.12 -356.86)"/><path class="cls-1" d="M156.75,373.88a3.92,3.92,0,0,1-1.78,3.49,2.41,2.41,0,0,1-2.69-.46,7.29,7.29,0,0,1-1.53-2.38,2.36,2.36,0,0,1,.8-2.6,3.12,3.12,0,0,1,3.45-.64A2.89,2.89,0,0,1,156.75,373.88Zm-2,2.13v-3.34l-2.89.76Z" transform="translate(-75.12 -356.86)"/><path class="cls-2" d="M155.23,392.59c.88,13.58-4.84,25.14-17.94,29.59a7.55,7.55,0,0,1-3.68.29,24.45,24.45,0,0,1-5.53-1.78,7.39,7.39,0,0,1-3.73-4.31c-.19-.5-.41-1-.6-1.47-2.7-.94-5.8-.77-8-3.15a10,10,0,0,1,.34-1.93c.52-2,1.27-4.05-.51-5.85a4.58,4.58,0,0,0-4.89.56,42,42,0,0,0-3.64,3.12c-3.08-6.29-2.25-15.15,1.31-21a26.94,26.94,0,0,1,5.51-6.21c3.49-3,9.78-5,14.37-4.22a34.78,34.78,0,0,1,9.41,3.15c5.33,2.67,6.83,8.8,7.15,14.32.05.77,0,1.55,0,2.32.18,6.69-2.27,10.59-6.16,13.51a10,10,0,0,0-3.2,3.12c-.6,1.12-1.06,2.38-2.28,3a4.3,4.3,0,0,1-1.19.2h0c-1.63-1.38.77-2.09.46-3.37-.23-.85-.88-1.17-2-.88a3.85,3.85,0,0,0-.58,4.41l2.27,1,.8.33a29.17,29.17,0,0,0,9.88-6.27,8.73,8.73,0,0,0,2.28-3.42c.57-1.69,1.53-3.25,2.16-4.93a18.4,18.4,0,0,0,1.2-9.33,38.61,38.61,0,0,0-2.48-10,19.07,19.07,0,0,0-13.59-11.08c-7.23-1.56-14,1-20.15,4.7a34.48,34.48,0,0,0-4.36,3.15c-1.27,1.07-2.31,2.4-3.56,3.51-3.55,3.17-4.83,7.32-5.15,11.85-.17,2.49-.09,5-.11,7.49,0,4.17,1.61,7.77,3.94,11.38a34.62,34.62,0,0,1,10.38-6.85l1.22,1.07c0,.5.09.81,0,1-.61,1.25-1.29,2.46-1.89,3.71-1.9,3.86-2.17,8-2,12.2a49.65,49.65,0,0,0,1.36,11.1c.44,1.59.63,3.26.9,4.76a1.67,1.67,0,0,1-2.5,1c-.57-.21-1.53-2-2-2.54a23.08,23.08,0,0,0-2.65-2.48A29,29,0,0,0,100,433.8a41.54,41.54,0,0,0-9.5-2.89c-2.61-.51-6.13-1.65-8.77-1.27-.55.08-1.2-.47-1.79-.73.82-2.17,1.94-2.9,8.94-5.91-.24-.72-.48-1.46-.74-2.2a76.41,76.41,0,0,1-3-12.93,3.37,3.37,0,0,1-.07-.83c.41-5.52.43-11.09,1.86-16.5,3.31-12.52,15-20.85,27-23.9,14.41-3.63,33.29,1.4,38.85,16.75A33.69,33.69,0,0,1,155.23,392.59Zm-26.12,4.64.69-1.07-2.53-3.57c0-.94,0-2,0-3.14-.06-2.08-.1-4.16-.26-6.23a7.12,7.12,0,0,0-.78-1.91c-1.32,2.28-1.41,2.29-1.32,3.67.18,2.6.48,5.2.73,7.84-.86,1.64-2.34,2.14-4.1,2.34-2.19.25-4.36.67-6.53,1.1-.26.05-.42.58-.75,1.07l2.28,1.06a22.88,22.88,0,0,1,8.74-2.58C127.31,396,127.66,397.66,129.11,397.23Z" transform="translate(-75.12 -356.86)"/><path class="cls-1" d="M149.4,420.56c.54.51.78,1.12.17,1.65-.28.23-.85.13-1.27.17C148.05,421.18,148.38,420.62,149.4,420.56Z" transform="translate(-75.12 -356.86)"/><path class="cls-1" d="M147.45,364.22l.5,2.72-2.66,1.28L144,367.05A3.81,3.81,0,0,1,147.45,364.22Z" transform="translate(-75.12 -356.86)"/><path class="cls-1" d="M143.65,423.65c.81,1.34.64,2-.69,2.19C142.39,424.73,142.39,424.73,143.65,423.65Z" transform="translate(-75.12 -356.86)"/><path class="cls-1" d="M137.78,358.86c3.79,1.15,4,1.46,3.63,5a14.89,14.89,0,0,1-2.45.9,3.36,3.36,0,0,1-3.76-1.87c-.42-1.28.26-2.73,1.8-3.76A2.74,2.74,0,0,1,137.78,358.86Zm2,4.25c.5-1.55-.16-2.18-1.95-2.64-.19.87-.33,1.55-.52,2.45Z" transform="translate(-75.12 -356.86)"/><path class="cls-1" d="M130.22,357.56l1.41,1.23c-1.59,3.32-2.4,3.58-4.71,1.61C127.05,358.41,128.64,358.14,130.22,357.56Z" transform="translate(-75.12 -356.86)"/><path class="cls-1" d="M128.18,423.68c1.16.49,1.24,1.16.43,2.07C127,425,127,425,128.18,423.68Z" transform="translate(-75.12 -356.86)"/><path class="cls-1" d="M123.7,357.79c.59,1.3.12,2.4-.79,3.72L120,362.68l-2.33-1.83a3.49,3.49,0,0,1,1.93-3.26C120.94,356.94,122.42,356.26,123.7,357.79Zm-2,2.55c.71-.44.71-1-.08-1.72-.47.26-1,.55-1.76.95C120.48,360.69,121.07,360.73,121.69,360.34Z" transform="translate(-75.12 -356.86)"/><path class="cls-1" d="M110.23,360.42a1.6,1.6,0,0,1,.16,2.29c-.74.9-1.61.76-2.64.27A2.6,2.6,0,0,1,110.23,360.42Z" transform="translate(-75.12 -356.86)"/><path class="cls-1" d="M99.6,364a5.71,5.71,0,0,1,2.27,0c-.17,3.8-1.29,4.77-4.58,3.93A4,4,0,0,1,99.6,364Z" transform="translate(-75.12 -356.86)"/><path class="cls-1" d="M92.08,369.25l1.82,2.22c-.68,1.44-1.32,2.78-2,4.15l-3.38,1.09a2.17,2.17,0,0,1-1.38-2.85A5.71,5.71,0,0,1,92.08,369.25Zm.08,2.57c-1.76-.1-2.69.52-2.7,2.18l1.56.49C91.45,373.48,91.8,372.65,92.16,371.82Z" transform="translate(-75.12 -356.86)"/><path class="cls-1" d="M86.46,381c-.4,1.7-.79,3.57-2.6,5-2.81-.05-3.57-.83-3.25-3a7.89,7.89,0,0,1,2.4-4.17C85,378,85.77,379.3,86.46,381Zm-2.9,3.25c1-1.05,1.6-2.1,1-3.54-1.6.24-1.83,1.37-2,2.59Z" transform="translate(-75.12 -356.86)"/><path class="cls-1" d="M84.86,419.74c0,1.34-.37,2.1-1.58,2.21-1,.09-1.21-.2-1.62-2a7.22,7.22,0,0,1,.83-.74,6.73,6.73,0,0,1,1-.38Z" transform="translate(-75.12 -356.86)"/><path class="cls-1" d="M80.6,391c1.5.54,2,1.08,1.93,2.07,0,.66-.39,1.22-2,3l-2.17-1.22C78.63,393.08,79.16,391.76,80.6,391Z" transform="translate(-75.12 -356.86)"/><path class="cls-1" d="M80.16,410.06c2,.21,2.31,1.77,2.9,3.22-.34,1.7-1,3.08-3.34,2.78l-1.49-2.42C78.24,411.83,78.84,410.7,80.16,410.06Z" transform="translate(-75.12 -356.86)"/><path class="cls-1" d="M81.34,401.54c.71,1.94-.36,3.43-1.4,4.9-2.47.79-3.54-.92-4.82-2.38.31-2.26.54-4.46,3-5.4C80,398.78,80.81,400.08,81.34,401.54ZM78.75,405c1.34-.5,1.34-1.58,1.16-2.72s-.49-1.87-1.78-1.73C76.93,403.06,77,403.19,78.75,405Z" transform="translate(-75.12 -356.86)"/></svg>