<svg id="Layer_4" data-name="Layer 4" xmlns="http://www.w3.org/2000/svg" viewBox="0 0 102.75 101.85"><defs><style>.cls-1{fill:#ed6f48;}.cls-2{fill:#067b8e;}</style></defs><path class="cls-1" d="M281.42,402a4.57,4.57,0,0,1,.31,3.67,8.32,8.32,0,0,1-1.91,2.79,4.62,4.62,0,0,1-2.24,1.66c-1.16.29-2.3.61-3.48.79-1.81.29-3.65.11-5.47.39-1.23.18-2.78.3-3.29-1.11-.22-.59.89-.92,1.26-1.17a18,18,0,0,0,1.94-1.44c1.09-.94,2.71-2.44,2-4a3.78,3.78,0,0,0-2.54-2.1c-.86-.27-2.88-.58-3.37-1.4a.36.36,0,0,1,0-.11c-.14-.5.58-1.24.85-1.55a14.75,14.75,0,0,1,1.43-1.42,11.44,11.44,0,0,1,3.65-2.13,7.47,7.47,0,0,1,5.66.85,10.78,10.78,0,0,1,3.6,3.54A29.27,29.27,0,0,1,281.42,402Zm-2.16,2.9a7.85,7.85,0,0,0-2-4.87,7.44,7.44,0,0,0-1.88-1.7,6.52,6.52,0,0,0-2.13-1.05,2.81,2.81,0,0,0-.65,0,10.12,10.12,0,0,0-1.44.18l-.24.05c-.28.06-1.3.34-1.22.8a.37.37,0,0,0,.17.2c.77.59,1.59,1.1,2.35,1.7a4.43,4.43,0,0,1,1.9,2.42,9.23,9.23,0,0,1-.33,3.54c-.33,1.48-1.93,2.25-3.07,3.12a4.48,4.48,0,0,0,1-.14,16.54,16.54,0,0,1,2.94-.55,6.71,6.71,0,0,0,2.12-.42A3.53,3.53,0,0,0,279.26,404.88Z" transform="translate(-179.23 -348.77)"/><path class="cls-1" d="M267.31,403.72a2,2,0,0,1-1.18,2.91,16.87,16.87,0,0,1-4.44,1,70.27,70.27,0,0,1-11.95-.57c-.85-.08-1.7-.16-2.55-.22a5.88,5.88,0,0,1-2.65-1,2.11,2.11,0,0,1-.79-2.75l.45-.06A79.19,79.19,0,0,1,267.31,403.72Z" transform="translate(-179.23 -348.77)"/><path class="cls-1" d="M249.67,407.81c.9,1,.27,1.88-.46,2.5-2.85,2.4-5.91,3.62-9.66.78,0,0-.26-.31-.5-.63-2.17-2.91-2.27-5.86-.15-8.69a12,12,0,0,1,3.42-3.29,6.9,6.9,0,0,1,4.94-.41,4.08,4.08,0,0,0,.07,1c0,.92-1.44,1.47-2.14,1.76a6.41,6.41,0,0,1-1.24.3,3.51,3.51,0,0,0-.74.21,5.29,5.29,0,0,0-3.14,4.08c-.34,1.72.73,2.82,1.87,3.69C244.84,409.86,247.23,408.69,249.67,407.81Z" transform="translate(-179.23 -348.77)"/><path class="cls-1" d="M241.48,354.31a9.8,9.8,0,0,1,.88,4.6,10,10,0,0,1-2,4.58,9.32,9.32,0,0,1-5.56,3.93,1.1,1.1,0,0,1-.93-.11l0,0a2,2,0,0,1-.18-1.53l0-.19a14.77,14.77,0,0,0,.29-4.09c-.2-1.42-1.23-3.12-2.9-2.64s-3.38,1.15-4.28,2.61a10.34,10.34,0,0,0-.94,3.89c0,.19-.06.38-.1.57-.12.62-.43,1.34-1.06,1.41s-1.13-.6-1.4-1.2a18.39,18.39,0,0,1-.83-2.29A12.31,12.31,0,0,1,222,357a11.4,11.4,0,0,1,3.81-5.42,10,10,0,0,1,6-2.8,13.38,13.38,0,0,1,2.53.07,8.8,8.8,0,0,1,4.56,1.68A9.24,9.24,0,0,1,241.48,354.31Zm-2.36,5.56a9.87,9.87,0,0,0,.18-2.24,8.73,8.73,0,0,0-.62-2.61,6.05,6.05,0,0,0-6.53-4,9.27,9.27,0,0,0-6.47,3.32c-.84,1-1.63,2.5-.91,3.77a.12.12,0,0,0,.07.07.09.09,0,0,0,.07,0,29.26,29.26,0,0,1,4.94-2.84,6,6,0,0,1,4.91.46,4,4,0,0,1,1.68,1.93,18.41,18.41,0,0,1,.76,2.08c.2.63.39,1.31.54,2,0,.18.11.39.29.44a.37.37,0,0,0,.36-.19A5.64,5.64,0,0,0,239.12,359.87Z" transform="translate(-179.23 -348.77)"/><path class="cls-1" d="M236.76,386.35c.67.8-.08,2.85-.42,3.64a11.51,11.51,0,0,1-1.88,2.86,9.77,9.77,0,0,1-2.7,2.3,5.12,5.12,0,0,1-3.44.62,7.42,7.42,0,0,1-1.91-.74,11.23,11.23,0,0,1-3.21-2.13,8.93,8.93,0,0,1-2.1-4.51,4.65,4.65,0,0,1-.09-1.7,2.08,2.08,0,0,1,.78-1.34,1.16,1.16,0,0,1,1.42.29c1.5,1.34,1.32,3.82,2.57,5.41a3.39,3.39,0,0,0,1.9,1.21,4,4,0,0,0,.84.08,6.44,6.44,0,0,0,1.78-.34,6.35,6.35,0,0,0,2.25-1.2c1.15-1,1.65-2.59,2.36-4a1.36,1.36,0,0,1,.54-.66A1.29,1.29,0,0,1,236.76,386.35Z" transform="translate(-179.23 -348.77)"/><path class="cls-1" d="M236.69,437.64c.27,4.15-.42,8-3.7,10.61a9.21,9.21,0,0,1-9.7,1.63c-2.84-1.2-3.93-4.32-4-7.2,0-.87.48-7,1.82-6.95,1.82.06,3.19,1.76,4.17,3.11.3.41.76,1.36,1.32,2.2.66,1,1.47,1.88,2.34,1.59a5.11,5.11,0,0,0,3.06-3.07c.62-1.37,1.44-2.64,2.09-3.81C235.91,435.59,236,437,236.69,437.64ZM232.28,446c.42-.43,2.75-3.81.72-3.29-.55.15-1.09,1.37-1.6,1.75a4.47,4.47,0,0,1-2.07.86A5.62,5.62,0,0,1,225,444a6.06,6.06,0,0,1-1.51-1.79c-.35-.63-.4-1.59-1-2a4,4,0,0,0-.28,4.26,5.66,5.66,0,0,0,2.25,2.59,5.2,5.2,0,0,0,3.93.92,8.36,8.36,0,0,0,3.64-1.73Z" transform="translate(-179.23 -348.77)"/><path class="cls-1" d="M236.56,417c.13.92.39,2-.27,2.82l-.09.1a1.91,1.91,0,0,1-1.22.55,1.14,1.14,0,0,1-.57-.11c-.48-.25-.3-.77-.35-1.21a14.33,14.33,0,0,0-.24-1.46,6.81,6.81,0,0,0-1.24-2.67,3.73,3.73,0,0,0-4.86-1.18,6.73,6.73,0,0,0-2.85,2.91c-.56,1-1.18,2.06-1.79,3.07a.62.62,0,0,1-.23.27.55.55,0,0,1-.31,0,2.24,2.24,0,0,1-1.06-.36c-1.27-.85-.25-2.24.27-3.21a12.37,12.37,0,0,1,1.37-2.07,11.44,11.44,0,0,1,4.76-3.45c2-.75,3.92-.92,5.65.53a9.1,9.1,0,0,1,2,2.42A8.24,8.24,0,0,1,236.56,417Z" transform="translate(-179.23 -348.77)"/><path class="cls-2" d="M234.34,401.67a6.92,6.92,0,0,1,0,3.23,7,7,0,0,1-.51,1.61,3.18,3.18,0,0,1-1,1.42,6.61,6.61,0,0,1-1.84.87,4.92,4.92,0,0,1-2.1.44,4.77,4.77,0,0,1-1.36-.47,10.08,10.08,0,0,1-1.66-.87c-1.86-1.32-1.4-4.06-1.26-6,.09-1.25,1.32-2.22,2.38-2.75a7.26,7.26,0,0,1,3.63-.8,1.35,1.35,0,0,1,.28,0,5.82,5.82,0,0,1,3.43,3.2Z" transform="translate(-179.23 -348.77)"/><path class="cls-1" d="M232.23,364.53a4.47,4.47,0,0,1,.12,1.1c-.76,4-.44,8-.6,12-.14,3.6-.05,7.21-2.42,10.76l-1.52.6c-1.6-3.49-1.24-7.13-1-10.67a106.33,106.33,0,0,0,.63-11.56,6.32,6.32,0,0,1,.09-1.37,6.15,6.15,0,0,1,.3-1.06,2.27,2.27,0,0,1,2.89-1.53Z" transform="translate(-179.23 -348.77)"/><path class="cls-1" d="M230.57,421.35v4.16c0,2.17-.11,4.43-.07,6.64a21.17,21.17,0,0,1-.37,4.56c-.2,1-.7,3.63-2,3.67-1,0-1.67-1.56-1.7-2.38-.18-4.69-.14-6.53-.1-11.7,0-1.79.08-3.6.13-5.39,0-.77.07-1.51,0-2.28a1.74,1.74,0,0,1,3.08-1.11C230.72,418.65,230.56,419.89,230.57,421.35Z" transform="translate(-179.23 -348.77)"/><path class="cls-1" d="M221.65,401.37A7.92,7.92,0,0,1,222,406a6.51,6.51,0,0,1-3.11,3.85,20.25,20.25,0,0,1-2.4,1.25,14.43,14.43,0,0,1-2.42,1,3.28,3.28,0,0,1-.41.08,3.07,3.07,0,0,1-.68,0,8.33,8.33,0,0,1-2.07-.55c-1-.36-.3-1.3.4-1.53.92-.29,1.85-.55,2.79-.8a6.33,6.33,0,0,0,3.92-3.48,2.7,2.7,0,0,0-1.13-3.59c-1.47-.76-3-1.53-4.74-1a2.69,2.69,0,0,1-1.66.05,2,2,0,0,1-1.12-.83c-.31-.83,1.49-1.7,2-2a5.92,5.92,0,0,1,2.21-.93,7.51,7.51,0,0,1,5,1.15c.47.27.93.56,1.37.87A3.89,3.89,0,0,1,221.65,401.37Z" transform="translate(-179.23 -348.77)"/><path class="cls-1" d="M215.27,403.44c.47.11.83.65,1.66,1.34a13.12,13.12,0,0,1-1.82,2,4.27,4.27,0,0,1-1.94.62c-3.42.32-6.87.49-10.29.88-3.19.36-6.31-.2-9.45-.48a4.56,4.56,0,0,1-1.19-.32,2.44,2.44,0,0,1-1.5-2.26,2,2,0,0,1,1.54-1.74,13.32,13.32,0,0,1,3.22-.64c5.1-.11,10.2-.17,15.29-.13A21.41,21.41,0,0,1,215.27,403.44Z" transform="translate(-179.23 -348.77)"/><path class="cls-1" d="M195.28,411c.48.39-.63,1.76-1,2.17a8,8,0,0,1-2.41,1.72c-2.64,1.46-6.5,2-9.23.49-3.59-2-4.12-7.42-2.73-10.89.11-.26.22-.52.35-.77,2-4,5.73-5.89,10-6.82a5,5,0,0,1,4.31,1.14,1,1,0,0,1,.26.31s0,.05,0,.08a1.16,1.16,0,0,1,0,.45c-.32,1.56-.89,1.7-2.36,1.7A6,6,0,0,0,189,402a5.05,5.05,0,0,0-1.17,4.91,5.86,5.86,0,0,0,3.78,3.28C192.68,410.38,194.36,410.27,195.28,411Zm-7.8,2.46c1.64-.44-.58-1.76-1.11-2.24a6.77,6.77,0,0,1-2-4.59,7.31,7.31,0,0,1,.29-2.55c.08-.28,1.07-2.46,1.07-2.57l-.83-.48c-.18-.11-1.56,1.67-1.71,1.88a9.12,9.12,0,0,0-1.29,7.91c.19.72,2.08,1.85,2.78,2.11A5,5,0,0,0,187.48,413.48Z" transform="translate(-179.23 -348.77)"/></svg>